<svg xmlns="http://www.w3.org/2000/svg" viewBox="0 0 820 420">
<rect width="820" height="420" rx="36" fill="#eef6ff"/>
<rect x="70" y="74" width="330" height="270" rx="22" fill="#fff" stroke="#dbe5f0" stroke-width="4"/>
<rect x="112" y="118" width="210" height="18" rx="9" fill="#7c83fd"/>
<rect x="112" y="158" width="248" height="14" rx="7" fill="#d7deea"/>
<rect x="112" y="188" width="248" height="14" rx="7" fill="#d7deea"/>
<rect x="112" y="218" width="180" height="14" rx="7" fill="#d7deea"/>
<circle cx="325" cy="290" r="36" fill="#dff7ea"/>
<path d="M309 290l11 11 23-27" fill="none" stroke="#21a366" stroke-width="9" stroke-linecap="round" stroke-linejoin="round"/>
<path d="M470 278c36-87 94-132 176-132 62 0 109 27 139 81" fill="none" stroke="#4f46e5" stroke-width="14" stroke-linecap="round"/>
<path d="M675 124l18 36 39-7" fill="none" stroke="#ff8a45" stroke-width="12" stroke-linecap="round" stroke-linejoin="round"/>
<path d="M465 322c70 23 162 18 230-22" fill="none" stroke="#1f9d8b" stroke-width="10" stroke-linecap="round" opacity=".75"/>
<text x="470" y="365" font-family="Arial, sans-serif" font-size="27" font-weight="700" fill="#24324a">Local evidence workspace</text>
</svg>
